<svg aria-hidden="true" style="position: absolute; width: 0; height: 0; overflow: hidden;" version="1.1" xmlns="http://www.w3.org/2000/svg" xmlns:xlink="http://www.w3.org/1999/xlink">
<defs>
<symbol id="icon-pattern-1" viewBox="0 0 28 32">
<path d="M27.85 0.26v0.138h-0.18v0.206h-0.12v-0.206h-0.18v-0.138h0.18v-0.206h0.12v0.206h0.18zM27.85 1.911v0.138h-0.18v0.206h-0.12v-0.206h-0.18v-0.138h0.18v-0.206h0.12v0.206h0.18zM27.85 3.562v0.138h-0.18v0.206h-0.12v-0.206h-0.18v-0.138h0.18v-0.206h0.12v0.206h0.18zM27.85 5.213v0.138h-0.18v0.206h-0.12v-0.206h-0.18v-0.138h0.18v-0.206h0.12v0.206h0.18zM27.85 6.864v0.138h-0.18v0.206h-0.12v-0.206h-0.18v-0.138h0.18v-0.206h0.12v0.206h0.18zM27.85 8.516v0.138h-0.18v0.206h-0.12v-0.206h-0.18v-0.138h0.18v-0.206h0.12v0.206h0.18zM27.85 10.167v0.138h-0.18v0.206h-0.12v-0.206h-0.18v-0.138h0.18v-0.206h0.12v0.206h0.18zM27.85 11.818v0.138h-0.18v0.206h-0.12v-0.206h-0.18v-0.138h0.18v-0.206h0.12v0.206h0.18zM27.85 13.469v0.138h-0.18v0.206h-0.12v-0.206h-0.18v-0.138h0.18v-0.206h0.12v0.206h0.18zM27.85 15.121v0.138h-0.18v0.206h-0.12v-0.206h-0.18v-0.138h0.18v-0.206h0.12v0.206h0.18zM27.85 16.772v0.138h-0.18v0.206h-0.12v-0.206h-0.18v-0.138h0.18v-0.206h0.12v0.206h0.18zM27.85 18.423v0.138h-0.18v0.206h-0.12v-0.206h-0.18v-0.138h0.18v-0.206h0.12v0.206h0.18zM27.85 20.074v0.138h-0.18v0.206h-0.12v-0.206h-0.18v-0.138h0.18v-0.206h0.12v0.206h0.18zM27.85 21.726v0.138h-0.18v0.206h-0.12v-0.206h-0.18v-0.138h0.18v-0.206h0.12v0.206h0.18zM27.85 23.377v0.138h-0.18v0.206h-0.12v-0.206h-0.18v-0.138h0.18v-0.206h0.12v0.206h0.18zM27.85 25.028v0.138h-0.18v0.206h-0.12v-0.206h-0.18v-0.138h0.18v-0.206h0.12v0.206h0.18zM27.85 26.679v0.138h-0.18v0.206h-0.12v-0.206h-0.18v-0.138h0.18v-0.206h0.12v0.206h0.18zM27.85 28.331v0.138h-0.18v0.206h-0.12v-0.206h-0.18v-0.138h0.18v-0.206h0.12v0.206h0.18zM27.85 29.982v0.138h-0.18v0.206h-0.12v-0.206h-0.18v-0.138h0.18v-0.206h0.12v0.206h0.18zM27.85 31.633v0.138h-0.18v0.206h-0.12v-0.206h-0.18v-0.138h0.18v-0.206h0.12v0.206h0.18zM26.41 0.26v0.138h-0.18v0.206h-0.12v-0.206h-0.18v-0.138h0.18v-0.206h0.12v0.206h0.18zM26.41 1.911v0.138h-0.18v0.206h-0.12v-0.206h-0.18v-0.138h0.18v-0.206h0.12v0.206h0.18zM26.41 3.562v0.138h-0.18v0.206h-0.12v-0.206h-0.18v-0.138h0.18v-0.206h0.12v0.206h0.18zM26.41 5.213v0.138h-0.18v0.206h-0.12v-0.206h-0.18v-0.138h0.18v-0.206h0.12v0.206h0.18zM26.41 6.864v0.138h-0.18v0.206h-0.12v-0.206h-0.18v-0.138h0.18v-0.206h0.12v0.206h0.18zM26.41 8.516v0.138h-0.18v0.206h-0.12v-0.206h-0.18v-0.138h0.18v-0.206h0.12v0.206h0.18zM26.41 10.167v0.138h-0.18v0.206h-0.12v-0.206h-0.18v-0.138h0.18v-0.206h0.12v0.206h0.18zM26.41 11.818v0.138h-0.18v0.206h-0.12v-0.206h-0.18v-0.138h0.18v-0.206h0.12v0.206h0.18zM26.41 13.469v0.138h-0.18v0.206h-0.12v-0.206h-0.18v-0.138h0.18v-0.206h0.12v0.206h0.18zM26.41 15.121v0.138h-0.18v0.206h-0.12v-0.206h-0.18v-0.138h0.18v-0.206h0.12v0.206h0.18zM26.41 16.772v0.138h-0.18v0.206h-0.12v-0.206h-0.18v-0.138h0.18v-0.206h0.12v0.206h0.18zM26.41 18.423v0.138h-0.18v0.206h-0.12v-0.206h-0.18v-0.138h0.18v-0.206h0.12v0.206h0.18zM26.41 20.074v0.138h-0.18v0.206h-0.12v-0.206h-0.18v-0.138h0.18v-0.206h0.12v0.206h0.18zM26.41 21.726v0.138h-0.18v0.206h-0.12v-0.206h-0.18v-0.138h0.18v-0.206h0.12v0.206h0.18zM26.41 23.377v0.138h-0.18v0.206h-0.12v-0.206h-0.18v-0.138h0.18v-0.206h0.12v0.206h0.18zM26.41 25.028v0.138h-0.18v0.206h-0.12v-0.206h-0.18v-0.138h0.18v-0.206h0.12v0.206h0.18zM26.41 26.679v0.138h-0.18v0.206h-0.12v-0.206h-0.18v-0.138h0.18v-0.206h0.12v0.206h0.18zM26.41 28.331v0.138h-0.18v0.206h-0.12v-0.206h-0.18v-0.138h0.18v-0.206h0.12v0.206h0.18zM26.41 29.982v0.138h-0.18v0.206h-0.12v-0.206h-0.18v-0.138h0.18v-0.206h0.12v0.206h0.18zM26.41 31.633v0.138h-0.18v0.206h-0.12v-0.206h-0.18v-0.138h0.18v-0.206h0.12v0.206h0.18zM24.969 0.26v0.138h-0.18v0.206h-0.12v-0.206h-0.18v-0.138h0.18v-0.206h0.12v0.206h0.18zM24.969 1.911v0.138h-0.18v0.206h-0.12v-0.206h-0.18v-0.138h0.18v-0.206h0.12v0.206h0.18zM24.969 3.562v0.138h-0.18v0.206h-0.12v-0.206h-0.18v-0.138h0.18v-0.206h0.12v0.206h0.18zM24.969 5.213v0.138h-0.18v0.206h-0.12v-0.206h-0.18v-0.138h0.18v-0.206h0.12v0.206h0.18zM24.969 6.864v0.138h-0.18v0.206h-0.12v-0.206h-0.18v-0.138h0.18v-0.206h0.12v0.206h0.18zM24.969 8.516v0.138h-0.18v0.206h-0.12v-0.206h-0.18v-0.138h0.18v-0.206h0.12v0.206h0.18zM24.969 10.167v0.138h-0.18v0.206h-0.12v-0.206h-0.18v-0.138h0.18v-0.206h0.12v0.206h0.18zM24.969 11.818v0.138h-0.18v0.206h-0.12v-0.206h-0.18v-0.138h0.18v-0.206h0.12v0.206h0.18zM24.969 13.469v0.138h-0.18v0.206h-0.12v-0.206h-0.18v-0.138h0.18v-0.206h0.12v0.206h0.18zM24.969 15.121v0.138h-0.18v0.206h-0.12v-0.206h-0.18v-0.138h0.18v-0.206h0.12v0.206h0.18zM24.969 16.772v0.138h-0.18v0.206h-0.12v-0.206h-0.18v-0.138h0.18v-0.206h0.12v0.206h0.18zM24.969 18.423v0.138h-0.18v0.206h-0.12v-0.206h-0.18v-0.138h0.18v-0.206h0.12v0.206h0.18zM24.969 20.074v0.138h-0.18v0.206h-0.12v-0.206h-0.18v-0.138h0.18v-0.206h0.12v0.206h0.18zM24.969 21.726v0.138h-0.18v0.206h-0.12v-0.206h-0.18v-0.138h0.18v-0.206h0.12v0.206h0.18zM24.969 23.377v0.138h-0.18v0.206h-0.12v-0.206h-0.18v-0.138h0.18v-0.206h0.12v0.206h0.18zM24.969 25.028v0.138h-0.18v0.206h-0.12v-0.206h-0.18v-0.138h0.18v-0.206h0.12v0.206h0.18zM24.969 26.679v0.138h-0.18v0.206h-0.12v-0.206h-0.18v-0.138h0.18v-0.206h0.12v0.206h0.18zM24.969 28.331v0.138h-0.18v0.206h-0.12v-0.206h-0.18v-0.138h0.18v-0.206h0.12v0.206h0.18zM24.969 29.982v0.138h-0.18v0.206h-0.12v-0.206h-0.18v-0.138h0.18v-0.206h0.12v0.206h0.18zM24.969 31.633v0.138h-0.18v0.206h-0.12v-0.206h-0.18v-0.138h0.18v-0.206h0.12v0.206h0.18zM23.529 0.26v0.138h-0.18v0.206h-0.12v-0.206h-0.18v-0.138h0.18v-0.206h0.12v0.206h0.18zM23.529 1.911v0.138h-0.18v0.206h-0.12v-0.206h-0.18v-0.138h0.18v-0.206h0.12v0.206h0.18zM23.529 3.562v0.138h-0.18v0.206h-0.12v-0.206h-0.18v-0.138h0.18v-0.206h0.12v0.206h0.18zM23.529 5.213v0.138h-0.18v0.206h-0.12v-0.206h-0.18v-0.138h0.18v-0.206h0.12v0.206h0.18zM23.529 6.864v0.138h-0.18v0.206h-0.12v-0.206h-0.18v-0.138h0.18v-0.206h0.12v0.206h0.18zM23.529 8.516v0.138h-0.18v0.206h-0.12v-0.206h-0.18v-0.138h0.18v-0.206h0.12v0.206h0.18zM23.529 10.167v0.138h-0.18v0.206h-0.12v-0.206h-0.18v-0.138h0.18v-0.206h0.12v0.206h0.18zM23.529 11.818v0.138h-0.18v0.206h-0.12v-0.206h-0.18v-0.138h0.18v-0.206h0.12v0.206h0.18zM23.529 13.469v0.138h-0.18v0.206h-0.12v-0.206h-0.18v-0.138h0.18v-0.206h0.12v0.206h0.18zM23.529 15.121v0.138h-0.18v0.206h-0.12v-0.206h-0.18v-0.138h0.18v-0.206h0.12v0.206h0.18zM23.529 16.772v0.138h-0.18v0.206h-0.12v-0.206h-0.18v-0.138h0.18v-0.206h0.12v0.206h0.18zM23.529 18.423v0.138h-0.18v0.206h-0.12v-0.206h-0.18v-0.138h0.18v-0.206h0.12v0.206h0.18zM23.529 20.074v0.138h-0.18v0.206h-0.12v-0.206h-0.18v-0.138h0.18v-0.206h0.12v0.206h0.18zM23.529 21.726v0.138h-0.18v0.206h-0.12v-0.206h-0.18v-0.138h0.18v-0.206h0.12v0.206h0.18zM23.529 23.377v0.138h-0.18v0.206h-0.12v-0.206h-0.18v-0.138h0.18v-0.206h0.12v0.206h0.18zM23.529 25.028v0.138h-0.18v0.206h-0.12v-0.206h-0.18v-0.138h0.18v-0.206h0.12v0.206h0.18zM23.529 26.679v0.138h-0.18v0.206h-0.12v-0.206h-0.18v-0.138h0.18v-0.206h0.12v0.206h0.18zM23.529 28.331v0.138h-0.18v0.206h-0.12v-0.206h-0.18v-0.138h0.18v-0.206h0.12v0.206h0.18zM23.529 29.982v0.138h-0.18v0.206h-0.12v-0.206h-0.18v-0.138h0.18v-0.206h0.12v0.206h0.18zM23.529 31.633v0.138h-0.18v0.206h-0.12v-0.206h-0.18v-0.138h0.18v-0.206h0.12v0.206h0.18zM22.088 0.26v0.138h-0.18v0.206h-0.12v-0.206h-0.18v-0.138h0.18v-0.206h0.12v0.206h0.18zM22.088 1.911v0.138h-0.18v0.206h-0.12v-0.206h-0.18v-0.138h0.18v-0.206h0.12v0.206h0.18zM22.088 3.562v0.138h-0.18v0.206h-0.12v-0.206h-0.18v-0.138h0.18v-0.206h0.12v0.206h0.18zM22.088 5.213v0.138h-0.18v0.206h-0.12v-0.206h-0.18v-0.138h0.18v-0.206h0.12v0.206h0.18zM22.088 6.864v0.138h-0.18v0.206h-0.12v-0.206h-0.18v-0.138h0.18v-0.206h0.12v0.206h0.18zM22.088 8.516v0.138h-0.18v0.206h-0.12v-0.206h-0.18v-0.138h0.18v-0.206h0.12v0.206h0.18zM22.088 10.167v0.138h-0.18v0.206h-0.12v-0.206h-0.18v-0.138h0.18v-0.206h0.12v0.206h0.18zM22.088 11.818v0.138h-0.18v0.206h-0.12v-0.206h-0.18v-0.138h0.18v-0.206h0.12v0.206h0.18zM22.088 13.469v0.138h-0.18v0.206h-0.12v-0.206h-0.18v-0.138h0.18v-0.206h0.12v0.206h0.18zM22.088 15.121v0.138h-0.18v0.206h-0.12v-0.206h-0.18v-0.138h0.18v-0.206h0.12v0.206h0.18zM22.088 16.772v0.138h-0.18v0.206h-0.12v-0.206h-0.18v-0.138h0.18v-0.206h0.12v0.206h0.18zM22.088 18.423v0.138h-0.18v0.206h-0.12v-0.206h-0.18v-0.138h0.18v-0.206h0.12v0.206h0.18zM22.088 20.074v0.138h-0.18v0.206h-0.12v-0.206h-0.18v-0.138h0.18v-0.206h0.12v0.206h0.18zM22.088 21.726v0.138h-0.18v0.206h-0.12v-0.206h-0.18v-0.138h0.18v-0.206h0.12v0.206h0.18zM22.088 23.377v0.138h-0.18v0.206h-0.12v-0.206h-0.18v-0.138h0.18v-0.206h0.12v0.206h0.18zM22.088 25.028v0.138h-0.18v0.206h-0.12v-0.206h-0.18v-0.138h0.18v-0.206h0.12v0.206h0.18zM22.088 26.679v0.138h-0.18v0.206h-0.12v-0.206h-0.18v-0.138h0.18v-0.206h0.12v0.206h0.18zM22.088 28.331v0.138h-0.18v0.206h-0.12v-0.206h-0.18v-0.138h0.18v-0.206h0.12v0.206h0.18zM22.088 29.982v0.138h-0.18v0.206h-0.12v-0.206h-0.18v-0.138h0.18v-0.206h0.12v0.206h0.18zM22.088 31.633v0.138h-0.18v0.206h-0.12v-0.206h-0.18v-0.138h0.18v-0.206h0.12v0.206h0.18zM20.648 0.26v0.138h-0.18v0.206h-0.12v-0.206h-0.18v-0.138h0.18v-0.206h0.12v0.206h0.18zM20.648 1.911v0.138h-0.18v0.206h-0.12v-0.206h-0.18v-0.138h0.18v-0.206h0.12v0.206h0.18zM20.648 3.562v0.138h-0.18v0.206h-0.12v-0.206h-0.18v-0.138h0.18v-0.206h0.12v0.206h0.18zM20.648 5.213v0.138h-0.18v0.206h-0.12v-0.206h-0.18v-0.138h0.18v-0.206h0.12v0.206h0.18zM20.648 6.864v0.138h-0.18v0.206h-0.12v-0.206h-0.18v-0.138h0.18v-0.206h0.12v0.206h0.18zM20.648 8.516v0.138h-0.18v0.206h-0.12v-0.206h-0.18v-0.138h0.18v-0.206h0.12v0.206h0.18zM20.648 10.167v0.138h-0.18v0.206h-0.12v-0.206h-0.18v-0.138h0.18v-0.206h0.12v0.206h0.18zM20.648 11.818v0.138h-0.18v0.206h-0.12v-0.206h-0.18v-0.138h0.18v-0.206h0.12v0.206h0.18zM20.648 13.469v0.138h-0.18v0.206h-0.12v-0.206h-0.18v-0.138h0.18v-0.206h0.12v0.206h0.18zM20.648 15.121v0.138h-0.18v0.206h-0.12v-0.206h-0.18v-0.138h0.18v-0.206h0.12v0.206h0.18zM20.648 16.772v0.138h-0.18v0.206h-0.12v-0.206h-0.18v-0.138h0.18v-0.206h0.12v0.206h0.18zM20.648 18.423v0.138h-0.18v0.206h-0.12v-0.206h-0.18v-0.138h0.18v-0.206h0.12v0.206h0.18zM20.648 20.074v0.138h-0.18v0.206h-0.12v-0.206h-0.18v-0.138h0.18v-0.206h0.12v0.206h0.18zM20.648 21.726v0.138h-0.18v0.206h-0.12v-0.206h-0.18v-0.138h0.18v-0.206h0.12v0.206h0.18zM20.648 23.377v0.138h-0.18v0.206h-0.12v-0.206h-0.18v-0.138h0.18v-0.206h0.12v0.206h0.18zM20.648 25.028v0.138h-0.18v0.206h-0.12v-0.206h-0.18v-0.138h0.18v-0.206h0.12v0.206h0.18zM20.648 26.679v0.138h-0.18v0.206h-0.12v-0.206h-0.18v-0.138h0.18v-0.206h0.12v0.206h0.18zM20.648 28.331v0.138h-0.18v0.206h-0.12v-0.206h-0.18v-0.138h0.18v-0.206h0.12v0.206h0.18zM20.648 29.982v0.138h-0.18v0.206h-0.12v-0.206h-0.18v-0.138h0.18v-0.206h0.12v0.206h0.18zM20.648 31.633v0.138h-0.18v0.206h-0.12v-0.206h-0.18v-0.138h0.18v-0.206h0.12v0.206h0.18zM19.207 0.26v0.138h-0.18v0.206h-0.12v-0.206h-0.18v-0.138h0.18v-0.206h0.12v0.206h0.18zM19.207 1.911v0.138h-0.18v0.206h-0.12v-0.206h-0.18v-0.138h0.18v-0.206h0.12v0.206h0.18zM19.207 3.562v0.138h-0.18v0.206h-0.12v-0.206h-0.18v-0.138h0.18v-0.206h0.12v0.206h0.18zM19.207 5.213v0.138h-0.18v0.206h-0.12v-0.206h-0.18v-0.138h0.18v-0.206h0.12v0.206h0.18zM19.207 6.864v0.138h-0.18v0.206h-0.12v-0.206h-0.18v-0.138h0.18v-0.206h0.12v0.206h0.18zM19.207 8.516v0.138h-0.18v0.206h-0.12v-0.206h-0.18v-0.138h0.18v-0.206h0.12v0.206h0.18zM19.207 10.167v0.138h-0.18v0.206h-0.12v-0.206h-0.18v-0.138h0.18v-0.206h0.12v0.206h0.18zM19.207 11.818v0.138h-0.18v0.206h-0.12v-0.206h-0.18v-0.138h0.18v-0.206h0.12v0.206h0.18zM19.207 13.469v0.138h-0.18v0.206h-0.12v-0.206h-0.18v-0.138h0.18v-0.206h0.12v0.206h0.18zM19.207 15.121v0.138h-0.18v0.206h-0.12v-0.206h-0.18v-0.138h0.18v-0.206h0.12v0.206h0.18zM19.207 16.772v0.138h-0.18v0.206h-0.12v-0.206h-0.18v-0.138h0.18v-0.206h0.12v0.206h0.18zM19.207 18.423v0.138h-0.18v0.206h-0.12v-0.206h-0.18v-0.138h0.18v-0.206h0.12v0.206h0.18zM19.207 20.074v0.138h-0.18v0.206h-0.12v-0.206h-0.18v-0.138h0.18v-0.206h0.12v0.206h0.18zM19.207 21.726v0.138h-0.18v0.206h-0.12v-0.206h-0.18v-0.138h0.18v-0.206h0.12v0.206h0.18zM19.207 23.377v0.138h-0.18v0.206h-0.12v-0.206h-0.18v-0.138h0.18v-0.206h0.12v0.206h0.18zM19.207 25.028v0.138h-0.18v0.206h-0.12v-0.206h-0.18v-0.138h0.18v-0.206h0.12v0.206h0.18zM19.207 26.679v0.138h-0.18v0.206h-0.12v-0.206h-0.18v-0.138h0.18v-0.206h0.12v0.206h0.18zM19.207 28.331v0.138h-0.18v0.206h-0.12v-0.206h-0.18v-0.138h0.18v-0.206h0.12v0.206h0.18zM19.207 29.982v0.138h-0.18v0.206h-0.12v-0.206h-0.18v-0.138h0.18v-0.206h0.12v0.206h0.18zM19.207 31.633v0.138h-0.18v0.206h-0.12v-0.206h-0.18v-0.138h0.18v-0.206h0.12v0.206h0.18zM17.766 0.26v0.138h-0.18v0.206h-0.12v-0.206h-0.18v-0.138h0.18v-0.206h0.12v0.206h0.18zM17.766 1.911v0.138h-0.18v0.206h-0.12v-0.206h-0.18v-0.138h0.18v-0.206h0.12v0.206h0.18zM17.766 3.562v0.138h-0.18v0.206h-0.12v-0.206h-0.18v-0.138h0.18v-0.206h0.12v0.206h0.18zM17.766 5.213v0.138h-0.18v0.206h-0.12v-0.206h-0.18v-0.138h0.18v-0.206h0.12v0.206h0.18zM17.766 6.864v0.138h-0.18v0.206h-0.12v-0.206h-0.18v-0.138h0.18v-0.206h0.12v0.206h0.18zM17.766 8.516v0.138h-0.18v0.206h-0.12v-0.206h-0.18v-0.138h0.18v-0.206h0.12v0.206h0.18zM17.766 10.167v0.138h-0.18v0.206h-0.12v-0.206h-0.18v-0.138h0.18v-0.206h0.12v0.206h0.18zM17.766 11.818v0.138h-0.18v0.206h-0.12v-0.206h-0.18v-0.138h0.18v-0.206h0.12v0.206h0.18zM17.766 13.469v0.138h-0.18v0.206h-0.12v-0.206h-0.18v-0.138h0.18v-0.206h0.12v0.206h0.18zM17.766 15.121v0.138h-0.18v0.206h-0.12v-0.206h-0.18v-0.138h0.18v-0.206h0.12v0.206h0.18zM17.766 16.772v0.138h-0.18v0.206h-0.12v-0.206h-0.18v-0.138h0.18v-0.206h0.12v0.206h0.18zM17.766 18.423v0.138h-0.18v0.206h-0.12v-0.206h-0.18v-0.138h0.18v-0.206h0.12v0.206h0.18zM17.766 20.074v0.138h-0.18v0.206h-0.12v-0.206h-0.18v-0.138h0.18v-0.206h0.12v0.206h0.18zM17.766 21.726v0.138h-0.18v0.206h-0.12v-0.206h-0.18v-0.138h0.18v-0.206h0.12v0.206h0.18zM17.766 23.377v0.138h-0.18v0.206h-0.12v-0.206h-0.18v-0.138h0.18v-0.206h0.12v0.206h0.18zM17.766 25.028v0.138h-0.18v0.206h-0.12v-0.206h-0.18v-0.138h0.18v-0.206h0.12v0.206h0.18zM17.766 26.679v0.138h-0.18v0.206h-0.12v-0.206h-0.18v-0.138h0.18v-0.206h0.12v0.206h0.18zM17.766 28.331v0.138h-0.18v0.206h-0.12v-0.206h-0.18v-0.138h0.18v-0.206h0.12v0.206h0.18zM17.766 29.982v0.138h-0.18v0.206h-0.12v-0.206h-0.18v-0.138h0.18v-0.206h0.12v0.206h0.18zM17.766 31.633v0.138h-0.18v0.206h-0.12v-0.206h-0.18v-0.138h0.18v-0.206h0.12v0.206h0.18zM16.326 0.26v0.138h-0.18v0.206h-0.12v-0.206h-0.18v-0.138h0.18v-0.206h0.12v0.206h0.18zM16.326 1.911v0.138h-0.18v0.206h-0.12v-0.206h-0.18v-0.138h0.18v-0.206h0.12v0.206h0.18zM16.326 3.562v0.138h-0.18v0.206h-0.12v-0.206h-0.18v-0.138h0.18v-0.206h0.12v0.206h0.18zM16.326 5.213v0.138h-0.18v0.206h-0.12v-0.206h-0.18v-0.138h0.18v-0.206h0.12v0.206h0.18zM16.326 6.864v0.138h-0.18v0.206h-0.12v-0.206h-0.18v-0.138h0.18v-0.206h0.12v0.206h0.18zM16.326 8.516v0.138h-0.18v0.206h-0.12v-0.206h-0.18v-0.138h0.18v-0.206h0.12v0.206h0.18zM16.326 10.167v0.138h-0.18v0.206h-0.12v-0.206h-0.18v-0.138h0.18v-0.206h0.12v0.206h0.18zM16.326 11.818v0.138h-0.18v0.206h-0.12v-0.206h-0.18v-0.138h0.18v-0.206h0.12v0.206h0.18zM16.326 13.469v0.138h-0.18v0.206h-0.12v-0.206h-0.18v-0.138h0.18v-0.206h0.12v0.206h0.18zM16.326 15.121v0.138h-0.18v0.206h-0.12v-0.206h-0.18v-0.138h0.18v-0.206h0.12v0.206h0.18zM16.326 16.772v0.138h-0.18v0.206h-0.12v-0.206h-0.18v-0.138h0.18v-0.206h0.12v0.206h0.18zM16.326 18.423v0.138h-0.18v0.206h-0.12v-0.206h-0.18v-0.138h0.18v-0.206h0.12v0.206h0.18zM16.326 20.074v0.138h-0.18v0.206h-0.12v-0.206h-0.18v-0.138h0.18v-0.206h0.12v0.206h0.18zM16.326 21.726v0.138h-0.18v0.206h-0.12v-0.206h-0.18v-0.138h0.18v-0.206h0.12v0.206h0.18zM16.326 23.377v0.138h-0.18v0.206h-0.12v-0.206h-0.18v-0.138h0.18v-0.206h0.12v0.206h0.18zM16.326 25.028v0.138h-0.18v0.206h-0.12v-0.206h-0.18v-0.138h0.18v-0.206h0.12v0.206h0.18zM16.326 26.679v0.138h-0.18v0.206h-0.12v-0.206h-0.18v-0.138h0.18v-0.206h0.12v0.206h0.18zM16.326 28.331v0.138h-0.18v0.206h-0.12v-0.206h-0.18v-0.138h0.18v-0.206h0.12v0.206h0.18zM16.326 29.982v0.138h-0.18v0.206h-0.12v-0.206h-0.18v-0.138h0.18v-0.206h0.12v0.206h0.18zM16.326 31.633v0.138h-0.18v0.206h-0.12v-0.206h-0.18v-0.138h0.18v-0.206h0.12v0.206h0.18zM14.885 0.26v0.138h-0.18v0.206h-0.12v-0.206h-0.18v-0.138h0.18v-0.206h0.12v0.206h0.18zM14.885 1.911v0.138h-0.18v0.206h-0.12v-0.206h-0.18v-0.138h0.18v-0.206h0.12v0.206h0.18zM14.885 3.562v0.138h-0.18v0.206h-0.12v-0.206h-0.18v-0.138h0.18v-0.206h0.12v0.206h0.18zM14.885 5.213v0.138h-0.18v0.206h-0.12v-0.206h-0.18v-0.138h0.18v-0.206h0.12v0.206h0.18zM14.885 6.864v0.138h-0.18v0.206h-0.12v-0.206h-0.18v-0.138h0.18v-0.206h0.12v0.206h0.18zM14.885 8.516v0.138h-0.18v0.206h-0.12v-0.206h-0.18v-0.138h0.18v-0.206h0.12v0.206h0.18zM14.885 10.167v0.138h-0.18v0.206h-0.12v-0.206h-0.18v-0.138h0.18v-0.206h0.12v0.206h0.18zM14.885 11.818v0.138h-0.18v0.206h-0.12v-0.206h-0.18v-0.138h0.18v-0.206h0.12v0.206h0.18zM14.885 13.469v0.138h-0.18v0.206h-0.12v-0.206h-0.18v-0.138h0.18v-0.206h0.12v0.206h0.18zM14.885 15.121v0.138h-0.18v0.206h-0.12v-0.206h-0.18v-0.138h0.18v-0.206h0.12v0.206h0.18zM14.885 16.772v0.138h-0.18v0.206h-0.12v-0.206h-0.18v-0.138h0.18v-0.206h0.12v0.206h0.18zM14.885 18.423v0.138h-0.18v0.206h-0.12v-0.206h-0.18v-0.138h0.18v-0.206h0.12v0.206h0.18zM14.885 20.074v0.138h-0.18v0.206h-0.12v-0.206h-0.18v-0.138h0.18v-0.206h0.12v0.206h0.18zM14.885 21.726v0.138h-0.18v0.206h-0.12v-0.206h-0.18v-0.138h0.18v-0.206h0.12v0.206h0.18zM14.885 23.377v0.138h-0.18v0.206h-0.12v-0.206h-0.18v-0.138h0.18v-0.206h0.12v0.206h0.18zM14.885 25.028v0.138h-0.18v0.206h-0.12v-0.206h-0.18v-0.138h0.18v-0.206h0.12v0.206h0.18zM14.885 26.679v0.138h-0.18v0.206h-0.12v-0.206h-0.18v-0.138h0.18v-0.206h0.12v0.206h0.18zM14.885 28.331v0.138h-0.18v0.206h-0.12v-0.206h-0.18v-0.138h0.18v-0.206h0.12v0.206h0.18zM14.885 29.982v0.138h-0.18v0.206h-0.12v-0.206h-0.18v-0.138h0.18v-0.206h0.12v0.206h0.18zM14.885 31.633v0.138h-0.18v0.206h-0.12v-0.206h-0.18v-0.138h0.18v-0.206h0.12v0.206h0.18zM13.445 0.26v0.138h-0.18v0.206h-0.12v-0.206h-0.18v-0.138h0.18v-0.206h0.12v0.206h0.18zM13.445 1.911v0.138h-0.18v0.206h-0.12v-0.206h-0.18v-0.138h0.18v-0.206h0.12v0.206h0.18zM13.445 3.562v0.138h-0.18v0.206h-0.12v-0.206h-0.18v-0.138h0.18v-0.206h0.12v0.206h0.18zM13.445 5.213v0.138h-0.18v0.206h-0.12v-0.206h-0.18v-0.138h0.18v-0.206h0.12v0.206h0.18zM13.445 6.864v0.138h-0.18v0.206h-0.12v-0.206h-0.18v-0.138h0.18v-0.206h0.12v0.206h0.18zM13.445 8.516v0.138h-0.18v0.206h-0.12v-0.206h-0.18v-0.138h0.18v-0.206h0.12v0.206h0.18zM13.445 10.167v0.138h-0.18v0.206h-0.12v-0.206h-0.18v-0.138h0.18v-0.206h0.12v0.206h0.18zM13.445 11.818v0.138h-0.18v0.206h-0.12v-0.206h-0.18v-0.138h0.18v-0.206h0.12v0.206h0.18zM13.445 13.469v0.138h-0.18v0.206h-0.12v-0.206h-0.18v-0.138h0.18v-0.206h0.12v0.206h0.18zM13.445 15.121v0.138h-0.18v0.206h-0.12v-0.206h-0.18v-0.138h0.18v-0.206h0.12v0.206h0.18zM13.445 16.772v0.138h-0.18v0.206h-0.12v-0.206h-0.18v-0.138h0.18v-0.206h0.12v0.206h0.18zM13.445 18.423v0.138h-0.18v0.206h-0.12v-0.206h-0.18v-0.138h0.18v-0.206h0.12v0.206h0.18zM13.445 20.074v0.138h-0.18v0.206h-0.12v-0.206h-0.18v-0.138h0.18v-0.206h0.12v0.206h0.18zM13.445 21.726v0.138h-0.18v0.206h-0.12v-0.206h-0.18v-0.138h0.18v-0.206h0.12v0.206h0.18zM13.445 23.377v0.138h-0.18v0.206h-0.12v-0.206h-0.18v-0.138h0.18v-0.206h0.12v0.206h0.18zM13.445 25.028v0.138h-0.18v0.206h-0.12v-0.206h-0.18v-0.138h0.18v-0.206h0.12v0.206h0.18zM13.445 26.679v0.138h-0.18v0.206h-0.12v-0.206h-0.18v-0.138h0.18v-0.206h0.12v0.206h0.18zM13.445 28.331v0.138h-0.18v0.206h-0.12v-0.206h-0.18v-0.138h0.18v-0.206h0.12v0.206h0.18zM13.445 29.982v0.138h-0.18v0.206h-0.12v-0.206h-0.18v-0.138h0.18v-0.206h0.12v0.206h0.18zM13.445 31.633v0.138h-0.18v0.206h-0.12v-0.206h-0.18v-0.138h0.18v-0.206h0.12v0.206h0.18zM12.004 0.26v0.138h-0.18v0.206h-0.12v-0.206h-0.18v-0.138h0.18v-0.206h0.12v0.206h0.18zM12.004 1.911v0.138h-0.18v0.206h-0.12v-0.206h-0.18v-0.138h0.18v-0.206h0.12v0.206h0.18zM12.004 3.562v0.138h-0.18v0.206h-0.12v-0.206h-0.18v-0.138h0.18v-0.206h0.12v0.206h0.18zM12.004 5.213v0.138h-0.18v0.206h-0.12v-0.206h-0.18v-0.138h0.18v-0.206h0.12v0.206h0.18zM12.004 6.864v0.138h-0.18v0.206h-0.12v-0.206h-0.18v-0.138h0.18v-0.206h0.12v0.206h0.18zM12.004 8.516v0.138h-0.18v0.206h-0.12v-0.206h-0.18v-0.138h0.18v-0.206h0.12v0.206h0.18zM12.004 10.167v0.138h-0.18v0.206h-0.12v-0.206h-0.18v-0.138h0.18v-0.206h0.12v0.206h0.18zM12.004 11.818v0.138h-0.18v0.206h-0.12v-0.206h-0.18v-0.138h0.18v-0.206h0.12v0.206h0.18zM12.004 13.469v0.138h-0.18v0.206h-0.12v-0.206h-0.18v-0.138h0.18v-0.206h0.12v0.206h0.18zM12.004 15.121v0.138h-0.18v0.206h-0.12v-0.206h-0.18v-0.138h0.18v-0.206h0.12v0.206h0.18zM12.004 16.772v0.138h-0.18v0.206h-0.12v-0.206h-0.18v-0.138h0.18v-0.206h0.12v0.206h0.18zM12.004 18.423v0.138h-0.18v0.206h-0.12v-0.206h-0.18v-0.138h0.18v-0.206h0.12v0.206h0.18zM12.004 20.074v0.138h-0.18v0.206h-0.12v-0.206h-0.18v-0.138h0.18v-0.206h0.12v0.206h0.18zM12.004 21.726v0.138h-0.18v0.206h-0.12v-0.206h-0.18v-0.138h0.18v-0.206h0.12v0.206h0.18zM12.004 23.377v0.138h-0.18v0.206h-0.12v-0.206h-0.18v-0.138h0.18v-0.206h0.12v0.206h0.18zM12.004 25.028v0.138h-0.18v0.206h-0.12v-0.206h-0.18v-0.138h0.18v-0.206h0.12v0.206h0.18zM12.004 26.679v0.138h-0.18v0.206h-0.12v-0.206h-0.18v-0.138h0.18v-0.206h0.12v0.206h0.18zM12.004 28.331v0.138h-0.18v0.206h-0.12v-0.206h-0.18v-0.138h0.18v-0.206h0.12v0.206h0.18zM12.004 29.982v0.138h-0.18v0.206h-0.12v-0.206h-0.18v-0.138h0.18v-0.206h0.12v0.206h0.18zM12.004 31.633v0.138h-0.18v0.206h-0.12v-0.206h-0.18v-0.138h0.18v-0.206h0.12v0.206h0.18zM10.564 0.26v0.138h-0.18v0.206h-0.12v-0.206h-0.18v-0.138h0.18v-0.206h0.12v0.206h0.18zM10.564 1.911v0.138h-0.18v0.206h-0.12v-0.206h-0.18v-0.138h0.18v-0.206h0.12v0.206h0.18zM10.564 3.562v0.138h-0.18v0.206h-0.12v-0.206h-0.18v-0.138h0.18v-0.206h0.12v0.206h0.18zM10.564 5.213v0.138h-0.18v0.206h-0.12v-0.206h-0.18v-0.138h0.18v-0.206h0.12v0.206h0.18zM10.564 6.864v0.138h-0.18v0.206h-0.12v-0.206h-0.18v-0.138h0.18v-0.206h0.12v0.206h0.18zM10.564 8.516v0.138h-0.18v0.206h-0.12v-0.206h-0.18v-0.138h0.18v-0.206h0.12v0.206h0.18zM10.564 10.167v0.138h-0.18v0.206h-0.12v-0.206h-0.18v-0.138h0.18v-0.206h0.12v0.206h0.18zM10.564 11.818v0.138h-0.18v0.206h-0.12v-0.206h-0.18v-0.138h0.18v-0.206h0.12v0.206h0.18zM10.564 13.469v0.138h-0.18v0.206h-0.12v-0.206h-0.18v-0.138h0.18v-0.206h0.12v0.206h0.18zM10.564 15.121v0.138h-0.18v0.206h-0.12v-0.206h-0.18v-0.138h0.18v-0.206h0.12v0.206h0.18zM10.564 16.772v0.138h-0.18v0.206h-0.12v-0.206h-0.18v-0.138h0.18v-0.206h0.12v0.206h0.18zM10.564 18.423v0.138h-0.18v0.206h-0.12v-0.206h-0.18v-0.138h0.18v-0.206h0.12v0.206h0.18zM10.564 20.074v0.138h-0.18v0.206h-0.12v-0.206h-0.18v-0.138h0.18v-0.206h0.12v0.206h0.18zM10.564 21.726v0.138h-0.18v0.206h-0.12v-0.206h-0.18v-0.138h0.18v-0.206h0.12v0.206h0.18zM10.564 23.377v0.138h-0.18v0.206h-0.12v-0.206h-0.18v-0.138h0.18v-0.206h0.12v0.206h0.18zM10.564 25.028v0.138h-0.18v0.206h-0.12v-0.206h-0.18v-0.138h0.18v-0.206h0.12v0.206h0.18zM10.564 26.679v0.138h-0.18v0.206h-0.12v-0.206h-0.18v-0.138h0.18v-0.206h0.12v0.206h0.18zM10.564 28.331v0.138h-0.18v0.206h-0.12v-0.206h-0.18v-0.138h0.18v-0.206h0.12v0.206h0.18zM10.564 29.982v0.138h-0.18v0.206h-0.12v-0.206h-0.18v-0.138h0.18v-0.206h0.12v0.206h0.18zM10.564 31.633v0.138h-0.18v0.206h-0.12v-0.206h-0.18v-0.138h0.18v-0.206h0.12v0.206h0.18zM9.123 0.26v0.138h-0.18v0.206h-0.12v-0.206h-0.18v-0.138h0.18v-0.206h0.12v0.206h0.18zM9.123 1.911v0.138h-0.18v0.206h-0.12v-0.206h-0.18v-0.138h0.18v-0.206h0.12v0.206h0.18zM9.123 3.562v0.138h-0.18v0.206h-0.12v-0.206h-0.18v-0.138h0.18v-0.206h0.12v0.206h0.18zM9.123 5.213v0.138h-0.18v0.206h-0.12v-0.206h-0.18v-0.138h0.18v-0.206h0.12v0.206h0.18zM9.123 6.864v0.138h-0.18v0.206h-0.12v-0.206h-0.18v-0.138h0.18v-0.206h0.12v0.206h0.18zM9.123 8.516v0.138h-0.18v0.206h-0.12v-0.206h-0.18v-0.138h0.18v-0.206h0.12v0.206h0.18zM9.123 10.167v0.138h-0.18v0.206h-0.12v-0.206h-0.18v-0.138h0.18v-0.206h0.12v0.206h0.18zM9.123 11.818v0.138h-0.18v0.206h-0.12v-0.206h-0.18v-0.138h0.18v-0.206h0.12v0.206h0.18zM9.123 13.469v0.138h-0.18v0.206h-0.12v-0.206h-0.18v-0.138h0.18v-0.206h0.12v0.206h0.18zM9.123 15.121v0.138h-0.18v0.206h-0.12v-0.206h-0.18v-0.138h0.18v-0.206h0.12v0.206h0.18zM9.123 16.772v0.138h-0.18v0.206h-0.12v-0.206h-0.18v-0.138h0.18v-0.206h0.12v0.206h0.18zM9.123 18.423v0.138h-0.18v0.206h-0.12v-0.206h-0.18v-0.138h0.18v-0.206h0.12v0.206h0.18zM9.123 20.074v0.138h-0.18v0.206h-0.12v-0.206h-0.18v-0.138h0.18v-0.206h0.12v0.206h0.18zM9.123 21.726v0.138h-0.18v0.206h-0.12v-0.206h-0.18v-0.138h0.18v-0.206h0.12v0.206h0.18zM9.123 23.377v0.138h-0.18v0.206h-0.12v-0.206h-0.18v-0.138h0.18v-0.206h0.12v0.206h0.18zM9.123 25.028v0.138h-0.18v0.206h-0.12v-0.206h-0.18v-0.138h0.18v-0.206h0.12v0.206h0.18zM9.123 26.679v0.138h-0.18v0.206h-0.12v-0.206h-0.18v-0.138h0.18v-0.206h0.12v0.206h0.18zM9.123 28.331v0.138h-0.18v0.206h-0.12v-0.206h-0.18v-0.138h0.18v-0.206h0.12v0.206h0.18zM9.123 29.982v0.138h-0.18v0.206h-0.12v-0.206h-0.18v-0.138h0.18v-0.206h0.12v0.206h0.18zM9.123 31.633v0.138h-0.18v0.206h-0.12v-0.206h-0.18v-0.138h0.18v-0.206h0.12v0.206h0.18zM7.683 0.26v0.138h-0.18v0.206h-0.12v-0.206h-0.18v-0.138h0.18v-0.206h0.12v0.206h0.18zM7.683 1.911v0.138h-0.18v0.206h-0.12v-0.206h-0.18v-0.138h0.18v-0.206h0.12v0.206h0.18zM7.683 3.562v0.138h-0.18v0.206h-0.12v-0.206h-0.18v-0.138h0.18v-0.206h0.12v0.206h0.18zM7.683 5.213v0.138h-0.18v0.206h-0.12v-0.206h-0.18v-0.138h0.18v-0.206h0.12v0.206h0.18zM7.683 6.864v0.138h-0.18v0.206h-0.12v-0.206h-0.18v-0.138h0.18v-0.206h0.12v0.206h0.18zM7.683 8.516v0.138h-0.18v0.206h-0.12v-0.206h-0.18v-0.138h0.18v-0.206h0.12v0.206h0.18zM7.683 10.167v0.138h-0.18v0.206h-0.12v-0.206h-0.18v-0.138h0.18v-0.206h0.12v0.206h0.18zM7.683 11.818v0.138h-0.18v0.206h-0.12v-0.206h-0.18v-0.138h0.18v-0.206h0.12v0.206h0.18zM7.683 13.469v0.138h-0.18v0.206h-0.12v-0.206h-0.18v-0.138h0.18v-0.206h0.12v0.206h0.18zM7.683 15.121v0.138h-0.18v0.206h-0.12v-0.206h-0.18v-0.138h0.18v-0.206h0.12v0.206h0.18zM7.683 16.772v0.138h-0.18v0.206h-0.12v-0.206h-0.18v-0.138h0.18v-0.206h0.12v0.206h0.18zM7.683 18.423v0.138h-0.18v0.206h-0.12v-0.206h-0.18v-0.138h0.18v-0.206h0.12v0.206h0.18zM7.683 20.074v0.138h-0.18v0.206h-0.12v-0.206h-0.18v-0.138h0.18v-0.206h0.12v0.206h0.18zM7.683 21.726v0.138h-0.18v0.206h-0.12v-0.206h-0.18v-0.138h0.18v-0.206h0.12v0.206h0.18zM7.683 23.377v0.138h-0.18v0.206h-0.12v-0.206h-0.18v-0.138h0.18v-0.206h0.12v0.206h0.18zM7.683 25.028v0.138h-0.18v0.206h-0.12v-0.206h-0.18v-0.138h0.18v-0.206h0.12v0.206h0.18zM7.683 26.679v0.138h-0.18v0.206h-0.12v-0.206h-0.18v-0.138h0.18v-0.206h0.12v0.206h0.18zM7.683 28.331v0.138h-0.18v0.206h-0.12v-0.206h-0.18v-0.138h0.18v-0.206h0.12v0.206h0.18zM7.683 29.982v0.138h-0.18v0.206h-0.12v-0.206h-0.18v-0.138h0.18v-0.206h0.12v0.206h0.18zM7.683 31.633v0.138h-0.18v0.206h-0.12v-0.206h-0.18v-0.138h0.18v-0.206h0.12v0.206h0.18zM6.242 0.26v0.138h-0.18v0.206h-0.12v-0.206h-0.18v-0.138h0.18v-0.206h0.12v0.206h0.18zM6.242 1.911v0.138h-0.18v0.206h-0.12v-0.206h-0.18v-0.138h0.18v-0.206h0.12v0.206h0.18zM6.242 3.562v0.138h-0.18v0.206h-0.12v-0.206h-0.18v-0.138h0.18v-0.206h0.12v0.206h0.18zM6.242 5.213v0.138h-0.18v0.206h-0.12v-0.206h-0.18v-0.138h0.18v-0.206h0.12v0.206h0.18zM6.242 6.864v0.138h-0.18v0.206h-0.12v-0.206h-0.18v-0.138h0.18v-0.206h0.12v0.206h0.18zM6.242 8.516v0.138h-0.18v0.206h-0.12v-0.206h-0.18v-0.138h0.18v-0.206h0.12v0.206h0.18zM6.242 10.167v0.138h-0.18v0.206h-0.12v-0.206h-0.18v-0.138h0.18v-0.206h0.12v0.206h0.18zM6.242 11.818v0.138h-0.18v0.206h-0.12v-0.206h-0.18v-0.138h0.18v-0.206h0.12v0.206h0.18zM6.242 13.469v0.138h-0.18v0.206h-0.12v-0.206h-0.18v-0.138h0.18v-0.206h0.12v0.206h0.18zM6.242 15.121v0.138h-0.18v0.206h-0.12v-0.206h-0.18v-0.138h0.18v-0.206h0.12v0.206h0.18zM6.242 16.772v0.138h-0.18v0.206h-0.12v-0.206h-0.18v-0.138h0.18v-0.206h0.12v0.206h0.18zM6.242 18.423v0.138h-0.18v0.206h-0.12v-0.206h-0.18v-0.138h0.18v-0.206h0.12v0.206h0.18zM6.242 20.074v0.138h-0.18v0.206h-0.12v-0.206h-0.18v-0.138h0.18v-0.206h0.12v0.206h0.18zM6.242 21.726v0.138h-0.18v0.206h-0.12v-0.206h-0.18v-0.138h0.18v-0.206h0.12v0.206h0.18zM6.242 23.377v0.138h-0.18v0.206h-0.12v-0.206h-0.18v-0.138h0.18v-0.206h0.12v0.206h0.18zM6.242 25.028v0.138h-0.18v0.206h-0.12v-0.206h-0.18v-0.138h0.18v-0.206h0.12v0.206h0.18zM6.242 26.679v0.138h-0.18v0.206h-0.12v-0.206h-0.18v-0.138h0.18v-0.206h0.12v0.206h0.18zM6.242 28.331v0.138h-0.18v0.206h-0.12v-0.206h-0.18v-0.138h0.18v-0.206h0.12v0.206h0.18zM6.242 29.982v0.138h-0.18v0.206h-0.12v-0.206h-0.18v-0.138h0.18v-0.206h0.12v0.206h0.18zM6.242 31.633v0.138h-0.18v0.206h-0.12v-0.206h-0.18v-0.138h0.18v-0.206h0.12v0.206h0.18zM4.802 0.26v0.138h-0.18v0.206h-0.12v-0.206h-0.18v-0.138h0.18v-0.206h0.12v0.206h0.18zM4.802 1.911v0.138h-0.18v0.206h-0.12v-0.206h-0.18v-0.138h0.18v-0.206h0.12v0.206h0.18zM4.802 3.562v0.138h-0.18v0.206h-0.12v-0.206h-0.18v-0.138h0.18v-0.206h0.12v0.206h0.18zM4.802 5.213v0.138h-0.18v0.206h-0.12v-0.206h-0.18v-0.138h0.18v-0.206h0.12v0.206h0.18zM4.802 6.864v0.138h-0.18v0.206h-0.12v-0.206h-0.18v-0.138h0.18v-0.206h0.12v0.206h0.18zM4.802 8.516v0.138h-0.18v0.206h-0.12v-0.206h-0.18v-0.138h0.18v-0.206h0.12v0.206h0.18zM4.802 10.167v0.138h-0.18v0.206h-0.12v-0.206h-0.18v-0.138h0.18v-0.206h0.12v0.206h0.18zM4.802 11.818v0.138h-0.18v0.206h-0.12v-0.206h-0.18v-0.138h0.18v-0.206h0.12v0.206h0.18zM4.802 13.469v0.138h-0.18v0.206h-0.12v-0.206h-0.18v-0.138h0.18v-0.206h0.12v0.206h0.18zM4.802 15.121v0.138h-0.18v0.206h-0.12v-0.206h-0.18v-0.138h0.18v-0.206h0.12v0.206h0.18zM4.802 16.772v0.138h-0.18v0.206h-0.12v-0.206h-0.18v-0.138h0.18v-0.206h0.12v0.206h0.18zM4.802 18.423v0.138h-0.18v0.206h-0.12v-0.206h-0.18v-0.138h0.18v-0.206h0.12v0.206h0.18zM4.802 20.074v0.138h-0.18v0.206h-0.12v-0.206h-0.18v-0.138h0.18v-0.206h0.12v0.206h0.18zM4.802 21.726v0.138h-0.18v0.206h-0.12v-0.206h-0.18v-0.138h0.18v-0.206h0.12v0.206h0.18zM4.802 23.377v0.138h-0.18v0.206h-0.12v-0.206h-0.18v-0.138h0.18v-0.206h0.12v0.206h0.18zM4.802 25.028v0.138h-0.18v0.206h-0.12v-0.206h-0.18v-0.138h0.18v-0.206h0.12v0.206h0.18zM4.802 26.679v0.138h-0.18v0.206h-0.12v-0.206h-0.18v-0.138h0.18v-0.206h0.12v0.206h0.18zM4.802 28.331v0.138h-0.18v0.206h-0.12v-0.206h-0.18v-0.138h0.18v-0.206h0.12v0.206h0.18zM4.802 29.982v0.138h-0.18v0.206h-0.12v-0.206h-0.18v-0.138h0.18v-0.206h0.12v0.206h0.18zM4.802 31.633v0.138h-0.18v0.206h-0.12v-0.206h-0.18v-0.138h0.18v-0.206h0.12v0.206h0.18zM3.361 0.26v0.138h-0.18v0.206h-0.12v-0.206h-0.18v-0.138h0.18v-0.206h0.12v0.206h0.18zM3.361 1.911v0.138h-0.18v0.206h-0.12v-0.206h-0.18v-0.138h0.18v-0.206h0.12v0.206h0.18zM3.361 3.562v0.138h-0.18v0.206h-0.12v-0.206h-0.18v-0.138h0.18v-0.206h0.12v0.206h0.18zM3.361 5.213v0.138h-0.18v0.206h-0.12v-0.206h-0.18v-0.138h0.18v-0.206h0.12v0.206h0.18zM3.361 6.864v0.138h-0.18v0.206h-0.12v-0.206h-0.18v-0.138h0.18v-0.206h0.12v0.206h0.18zM3.361 8.516v0.138h-0.18v0.206h-0.12v-0.206h-0.18v-0.138h0.18v-0.206h0.12v0.206h0.18zM3.361 10.167v0.138h-0.18v0.206h-0.12v-0.206h-0.18v-0.138h0.18v-0.206h0.12v0.206h0.18zM3.361 11.818v0.138h-0.18v0.206h-0.12v-0.206h-0.18v-0.138h0.18v-0.206h0.12v0.206h0.18zM3.361 13.469v0.138h-0.18v0.206h-0.12v-0.206h-0.18v-0.138h0.18v-0.206h0.12v0.206h0.18zM3.361 15.121v0.138h-0.18v0.206h-0.12v-0.206h-0.18v-0.138h0.18v-0.206h0.12v0.206h0.18zM3.361 16.772v0.138h-0.18v0.206h-0.12v-0.206h-0.18v-0.138h0.18v-0.206h0.12v0.206h0.18zM3.361 18.423v0.138h-0.18v0.206h-0.12v-0.206h-0.18v-0.138h0.18v-0.206h0.12v0.206h0.18zM3.361 20.074v0.138h-0.18v0.206h-0.12v-0.206h-0.18v-0.138h0.18v-0.206h0.12v0.206h0.18zM3.361 21.726v0.138h-0.18v0.206h-0.12v-0.206h-0.18v-0.138h0.18v-0.206h0.12v0.206h0.18zM3.361 23.377v0.138h-0.18v0.206h-0.12v-0.206h-0.18v-0.138h0.18v-0.206h0.12v0.206h0.18zM3.361 25.028v0.138h-0.18v0.206h-0.12v-0.206h-0.18v-0.138h0.18v-0.206h0.12v0.206h0.18zM3.361 26.679v0.138h-0.18v0.206h-0.12v-0.206h-0.18v-0.138h0.18v-0.206h0.12v0.206h0.18zM3.361 28.331v0.138h-0.18v0.206h-0.12v-0.206h-0.18v-0.138h0.18v-0.206h0.12v0.206h0.18zM3.361 29.982v0.138h-0.18v0.206h-0.12v-0.206h-0.18v-0.138h0.18v-0.206h0.12v0.206h0.18zM3.361 31.633v0.138h-0.18v0.206h-0.12v-0.206h-0.18v-0.138h0.18v-0.206h0.12v0.206h0.18zM1.921 0.26v0.138h-0.18v0.206h-0.12v-0.206h-0.18v-0.138h0.18v-0.206h0.12v0.206h0.18zM1.921 1.911v0.138h-0.18v0.206h-0.12v-0.206h-0.18v-0.138h0.18v-0.206h0.12v0.206h0.18zM1.921 3.562v0.138h-0.18v0.206h-0.12v-0.206h-0.18v-0.138h0.18v-0.206h0.12v0.206h0.18zM1.921 5.213v0.138h-0.18v0.206h-0.12v-0.206h-0.18v-0.138h0.18v-0.206h0.12v0.206h0.18zM1.921 6.864v0.138h-0.18v0.206h-0.12v-0.206h-0.18v-0.138h0.18v-0.206h0.12v0.206h0.18zM1.921 8.516v0.138h-0.18v0.206h-0.12v-0.206h-0.18v-0.138h0.18v-0.206h0.12v0.206h0.18zM1.921 10.167v0.138h-0.18v0.206h-0.12v-0.206h-0.18v-0.138h0.18v-0.206h0.12v0.206h0.18zM1.921 11.818v0.138h-0.18v0.206h-0.12v-0.206h-0.18v-0.138h0.18v-0.206h0.12v0.206h0.18zM1.921 13.469v0.138h-0.18v0.206h-0.12v-0.206h-0.18v-0.138h0.18v-0.206h0.12v0.206h0.18zM1.921 15.121v0.138h-0.18v0.206h-0.12v-0.206h-0.18v-0.138h0.18v-0.206h0.12v0.206h0.18zM1.921 16.772v0.138h-0.18v0.206h-0.12v-0.206h-0.18v-0.138h0.18v-0.206h0.12v0.206h0.18zM1.921 18.423v0.138h-0.18v0.206h-0.12v-0.206h-0.18v-0.138h0.18v-0.206h0.12v0.206h0.18zM1.921 20.074v0.138h-0.18v0.206h-0.12v-0.206h-0.18v-0.138h0.18v-0.206h0.12v0.206h0.18zM1.921 21.726v0.138h-0.18v0.206h-0.12v-0.206h-0.18v-0.138h0.18v-0.206h0.12v0.206h0.18zM1.921 23.377v0.138h-0.18v0.206h-0.12v-0.206h-0.18v-0.138h0.18v-0.206h0.12v0.206h0.18zM1.921 25.028v0.138h-0.18v0.206h-0.12v-0.206h-0.18v-0.138h0.18v-0.206h0.12v0.206h0.18zM1.921 26.679v0.138h-0.18v0.206h-0.12v-0.206h-0.18v-0.138h0.18v-0.206h0.12v0.206h0.18zM1.921 28.331v0.138h-0.18v0.206h-0.12v-0.206h-0.18v-0.138h0.18v-0.206h0.12v0.206h0.18zM1.921 29.982v0.138h-0.18v0.206h-0.12v-0.206h-0.18v-0.138h0.18v-0.206h0.12v0.206h0.18zM1.921 31.633v0.138h-0.18v0.206h-0.12v-0.206h-0.18v-0.138h0.18v-0.206h0.12v0.206h0.18zM0.48 0.26v0.138h-0.18v0.206h-0.12v-0.206h-0.18v-0.138h0.18v-0.206h0.12v0.206h0.18zM0.48 1.911v0.138h-0.18v0.206h-0.12v-0.206h-0.18v-0.138h0.18v-0.206h0.12v0.206h0.18zM0.48 3.562v0.138h-0.18v0.206h-0.12v-0.206h-0.18v-0.138h0.18v-0.206h0.12v0.206h0.18zM0.48 5.213v0.138h-0.18v0.206h-0.12v-0.206h-0.18v-0.138h0.18v-0.206h0.12v0.206h0.18zM0.48 6.864v0.138h-0.18v0.206h-0.12v-0.206h-0.18v-0.138h0.18v-0.206h0.12v0.206h0.18zM0.48 8.516v0.138h-0.18v0.206h-0.12v-0.206h-0.18v-0.138h0.18v-0.206h0.12v0.206h0.18zM0.48 10.167v0.138h-0.18v0.206h-0.12v-0.206h-0.18v-0.138h0.18v-0.206h0.12v0.206h0.18zM0.48 11.818v0.138h-0.18v0.206h-0.12v-0.206h-0.18v-0.138h0.18v-0.206h0.12v0.206h0.18zM0.48 13.469v0.138h-0.18v0.206h-0.12v-0.206h-0.18v-0.138h0.18v-0.206h0.12v0.206h0.18zM0.48 15.121v0.138h-0.18v0.206h-0.12v-0.206h-0.18v-0.138h0.18v-0.206h0.12v0.206h0.18zM0.48 16.772v0.138h-0.18v0.206h-0.12v-0.206h-0.18v-0.138h0.18v-0.206h0.12v0.206h0.18zM0.48 18.423v0.138h-0.18v0.206h-0.12v-0.206h-0.18v-0.138h0.18v-0.206h0.12v0.206h0.18zM0.48 20.074v0.138h-0.18v0.206h-0.12v-0.206h-0.18v-0.138h0.18v-0.206h0.12v0.206h0.18zM0.48 21.726v0.138h-0.18v0.206h-0.12v-0.206h-0.18v-0.138h0.18v-0.206h0.12v0.206h0.18zM0.48 23.377v0.138h-0.18v0.206h-0.12v-0.206h-0.18v-0.138h0.18v-0.206h0.12v0.206h0.18zM0.48 25.028v0.138h-0.18v0.206h-0.12v-0.206h-0.18v-0.138h0.18v-0.206h0.12v0.206h0.18zM0.48 26.679v0.138h-0.18v0.206h-0.12v-0.206h-0.18v-0.138h0.18v-0.206h0.12v0.206h0.18zM0.48 28.331v0.138h-0.18v0.206h-0.12v-0.206h-0.18v-0.138h0.18v-0.206h0.12v0.206h0.18zM0.48 29.982v0.138h-0.18v0.206h-0.12v-0.206h-0.18v-0.138h0.18v-0.206h0.12v0.206h0.18zM0.48 31.633v0.138h-0.18v0.206h-0.12v-0.206h-0.18v-0.138h0.18v-0.206h0.12v0.206h0.18z"></path>
</symbol>
</defs>
</svg>
